<?xml version="1.0" encoding="UTF-8"?>
<svg width="512px" height="512px" viewBox="0 0 512 512" version="1.1" xmlns="http://www.w3.org/2000/svg" xmlns:xlink="http://www.w3.org/1999/xlink" style="background: #DD6A58;">
    <!-- Generator: Sketch 43.2 (39069) - http://www.bohemiancoding.com/sketch -->
    <title>ember-hn-white</title>
    <desc>Created with Sketch.</desc>
    <defs></defs>
    <g id="Page-1" stroke="none" stroke-width="1" fill="none" fill-rule="evenodd">
        <g id="ember-hn-white">
            <g id="ember-logo" transform="translate(52.000000, 152.000000)" fill-rule="nonzero" fill="#FFFFFF">
                <path d="M283.764825,118.651924 C283.764825,118.651924 281.864502,111.823757 288.93547,98.6885903 C296.006438,85.5534237 301.530631,92.7349237 301.530631,92.7349237 C301.530631,92.7349237 307.558631,99.3908403 300.664438,109.372507 C293.770244,119.354174 283.769244,118.647507 283.769244,118.647507 L283.764825,118.651924 Z M229.459792,128.10359 C221.359115,149.643674 201.706244,140.88984 201.706244,140.88984 C201.706244,140.88984 199.465631,133.187174 205.84276,111.651507 C212.219889,90.107007 227.21918,98.5119237 227.21918,98.5119237 C227.21918,98.5119237 237.56047,106.567924 229.459792,128.10359 L229.459792,128.10359 Z M214.809631,37.928507 C214.809631,37.928507 227.051244,5.53667368 229.976857,21.2953403 C232.906889,37.0628403 204.287147,83.9899237 204.287147,83.9899237 C204.631857,73.478257 214.805212,37.9329237 214.805212,37.9329237 L214.809631,37.928507 Z M39.8164376,118.651924 C40.3379215,97.8140903 53.7815989,88.7069237 58.4395989,93.2560903 C63.0975989,97.8140903 61.3740505,107.61909 52.5795344,113.749424 C43.7850183,119.87534 39.820857,118.651924 39.820857,118.651924 L39.8164376,118.651924 Z M403.759147,110.794674 C403.759147,110.794674 393.762567,118.665174 384.968051,117.790674 C376.173534,116.90734 378.931212,96.944007 378.931212,96.944007 C378.931212,96.944007 380.831534,78.645757 375.660889,77.1131737 C370.490244,75.5761737 364.104276,81.8831737 364.104276,81.8831737 C364.104276,81.8831737 356.171534,90.8048403 352.379728,102.191007 L351.345599,102.54434 C351.345599,102.54434 352.552083,82.581007 351.168825,78.0318403 C350.134696,75.7484237 340.65076,75.9250903 339.103986,79.9530903 C337.557212,83.9810903 329.96476,111.996007 329.447696,123.73109 C329.447696,123.73109 314.62076,136.512924 301.694147,138.615257 C288.763115,140.713174 285.660728,132.484924 285.660728,132.484924 C285.660728,132.484924 320.829954,122.503257 319.62347,93.962757 C318.416986,65.4178403 291.26447,75.969257 288.188599,78.3189237 C285.214373,80.5846737 269.34447,90.3101737 264.721825,117.229757 C264.558309,118.157257 264.279889,122.15434 264.279889,122.15434 C264.279889,122.15434 250.668276,131.42934 243.075825,133.885007 C243.075825,133.885007 264.279889,97.6374237 238.422244,81.176507 C226.702115,73.9994237 217.394954,89.0558403 217.394954,89.0558403 C217.394954,89.0558403 252.396244,49.482507 244.631438,16.0350903 C240.936857,0.113007014 233.096922,-1.59624299 225.902212,0.974257014 C214.986405,5.36000701 210.841051,11.839257 210.841051,11.839257 C210.841051,11.839257 196.699115,32.6770903 193.428792,63.673257 C190.149631,94.665007 185.323696,132.140424 185.323696,132.140424 C185.323696,132.140424 178.597438,138.791924 172.392663,139.145257 C166.187889,139.49859 168.945567,120.40534 168.945567,120.40534 C168.945567,120.40534 173.771502,91.3436737 173.426792,86.4411737 C173.082083,81.5386737 172.737373,78.910757 167.049663,77.1573403 C161.361954,75.4083403 155.161599,82.766507 155.161599,82.766507 C155.161599,82.766507 138.779051,107.97684 137.395792,111.828174 L136.538438,113.404924 L135.676663,112.358174 C135.676663,112.358174 147.233276,78.0406737 136.198147,77.5106737 C125.163018,76.9806737 117.924115,89.7669237 117.924115,89.7669237 C117.924115,89.7669237 105.337792,111.13034 104.820728,113.58159 L103.958954,112.530424 C103.958954,112.530424 109.129599,87.6645903 108.09547,81.5386737 C107.056922,75.4083403 101.369212,76.6361737 101.369212,76.6361737 C101.369212,76.6361737 94.1303086,75.7528403 92.229986,80.487507 C90.3296634,85.2133403 83.4354699,116.558424 82.5781151,126.54009 C82.5781151,126.54009 64.4764376,139.67084 52.5795344,139.84309 C40.6826312,140.019757 41.8846957,132.180174 41.8846957,132.180174 C41.8846957,132.180174 85.503728,117.01334 73.6156634,87.0683403 C68.2682441,79.3656737 62.0634699,76.9453403 53.2689538,77.122007 C44.4744376,77.2986737 33.5586312,82.7444237 26.4965022,98.852007 C23.1245344,106.54584 21.8915344,113.83334 21.2021151,119.354174 C21.2021151,119.354174 13.5654699,120.93534 9.42895377,117.432924 C5.29243764,113.930507 3.16230861,117.432924 3.16230861,117.432924 C3.16230861,117.432924 -3.93517526,126.624007 3.13579248,129.424174 C10.1979215,132.22434 21.2330505,133.531674 21.2330505,133.531674 C22.2406634,138.434174 25.1883731,146.764007 33.792857,153.406674 C46.7238893,163.38834 71.5474054,152.488007 71.5474054,152.488007 L81.7119215,146.688924 C81.7119215,146.688924 82.0654699,156.16709 89.4723086,157.553924 C96.887986,158.93634 99.9903731,157.53184 112.921405,125.66559 C120.505018,109.376924 121.022083,110.251424 121.022083,110.251424 C121.883857,110.074757 116.023792,141.243174 118.259986,149.64809 C120.505018,158.053007 130.333663,157.17409 130.333663,157.17409 C130.333663,157.17409 135.681083,158.225257 139.985534,142.819924 C144.289986,127.40134 152.571857,110.41484 152.571857,110.41484 C153.605986,110.41484 149.982115,142.289924 155.506309,152.448257 C161.017244,162.60659 175.327115,155.86234 175.327115,155.86234 C175.327115,155.86234 185.328115,150.739007 186.879309,149.162257 C186.879309,149.162257 198.749696,159.422174 215.485792,157.562757 C252.908889,150.08534 266.219986,139.984424 266.219986,139.984424 C266.219986,139.984424 272.645728,156.52484 292.559341,158.057424 C315.319018,159.806424 327.728567,145.271174 327.728567,145.271174 C327.728567,145.271174 327.551792,154.72284 335.488954,158.053007 C343.417276,161.378757 348.760276,142.683007 348.760276,142.683007 L362.036018,105.516757 C363.246922,105.516757 363.936341,129.689174 377.035309,133.540507 C390.143115,137.39184 407.210663,124.521674 407.210663,124.521674 C407.210663,124.521674 411.34718,122.202924 410.65776,115.202507 C409.963922,108.18884 403.759147,110.794674 403.759147,110.794674 Z" id="Shape"></path>
            </g>
            <rect id="Rectangle" stroke="#FFFFFF" stroke-width="21" x="10.5" y="10.5" width="491" height="491"></rect>
        </g>
    </g>
</svg>