<?xml version="1.0" encoding="UTF-8"?>
<svg width="512px" height="512px" viewBox="0 0 512 512" version="1.1" xmlns="http://www.w3.org/2000/svg" xmlns:xlink="http://www.w3.org/1999/xlink" style="background: #FFFFFF;">
    <!-- Generator: Sketch 43.2 (39069) - http://www.bohemiancoding.com/sketch -->
    <title>ember-hn</title>
    <desc>Created with Sketch.</desc>
    <defs></defs>
    <g id="Page-1" stroke="none" stroke-width="1" fill="none" fill-rule="evenodd">
        <g id="ember-hn">
            <rect id="Rectangle" stroke="#DD6A58" stroke-width="32" x="16" y="16" width="480" height="480"></rect>
            <path d="M180.660105,155.100215 C176.070028,165.845169 171.636498,180.345422 167.35938,198.601411 C163.082263,216.8574 159.587597,236.730049 156.875279,258.219956 C169.810951,242.989245 180.503584,226.402625 188.953499,208.459596 C197.403414,190.516567 201.628308,174.242901 201.628308,159.63811 C201.628308,152.961634 200.898079,147.850034 199.4376,144.303156 C197.977121,140.756278 195.890753,138.982866 193.178435,138.982866 C189.422917,138.982866 185.250183,144.355262 180.660105,155.100215 Z M272.586353,382.579645 C273.257136,385.893959 274.067357,388.776477 275.017015,391.227209 C278.250933,399.572804 283.831966,403.745538 291.760281,403.745538 C298.228117,403.745538 302.974603,402.024285 305.999881,398.581727 C309.025159,395.13917 311.685278,388.514953 313.980316,378.708879 C317.109915,365.981847 321.23049,353.880916 326.342167,342.405723 C331.453844,330.93053 336.461126,321.698354 341.364163,314.708919 C346.2672,307.719483 350.07482,304.224818 352.787138,304.224818 C355.082177,304.224818 356.229679,305.893912 356.229679,309.232149 C356.229679,313.822227 354.977859,324.4627 352.47418,341.15389 C349.553222,360.348758 348.092765,374.118783 348.092765,382.464378 C348.092765,389.558134 349.65754,394.878371 352.787138,398.425248 C355.916737,401.972126 360.924018,403.745538 367.809134,403.745538 C375.11153,403.745538 380.379607,402.024285 383.613525,398.581727 C386.847443,395.13917 388.464378,389.453818 388.464378,381.525503 C388.464378,367.546632 389.090288,354.87195 390.342127,343.501077 C391.593967,332.130204 393.263061,320.081432 395.349459,307.3544 C397.644498,292.332329 398.792,282.109129 398.792,276.684492 C398.792,270.008016 397.070747,264.948575 393.628189,261.506018 C390.185631,258.06346 385.12619,256.342207 378.449714,256.342207 C371.564599,256.342207 364.001517,258.741529 355.760242,263.540246 C347.518967,268.338963 339.121338,276.371478 330.567103,287.638031 C322.012869,298.904584 314.293309,313.509156 307.408193,331.452185 C308.242753,322.27203 309.285937,314.552471 310.537776,308.293275 C311.789615,302.034079 313.458709,294.731793 315.545108,286.386198 C318.674706,274.702365 320.239481,267.191442 320.239481,263.853204 C320.239481,260.932246 319.404934,258.950197 317.735815,257.906998 C316.066696,256.863798 313.145782,256.342207 308.972985,256.342207 C301.253309,256.342207 295.255003,257.750505 290.977886,260.567143 C286.700768,263.383781 283.623376,267.817312 281.745618,273.867868 C274.566744,296.568629 270.7259,320.441859 270.222991,345.488179 C264.023,352.553405 258.840276,357.941532 254.67473,361.652655 C248.937133,366.764332 243.982011,369.320132 239.809213,369.320132 C233.758657,369.320132 230.733424,365.147397 230.733424,356.801802 C230.733424,350.959886 232.715473,338.963273 236.679631,320.811604 C241.269708,299.530338 243.564712,284.821447 243.564712,276.684492 C243.564712,263.122901 236.784018,256.342207 223.222426,256.342207 C216.337311,256.342207 208.774229,258.741529 200.532954,263.540246 C192.291679,268.338963 183.946209,276.319319 175.496295,287.481552 C167.04638,298.643785 159.378979,313.091879 152.493864,330.826268 C152.493864,319.351075 152.806819,308.18901 153.432738,297.339736 C181.181841,267.086955 201.210968,240.642248 213.520721,218.004822 C225.830473,195.367396 231.985257,173.512697 231.985257,152.44007 C231.985257,139.295758 229.012184,128.603125 223.065947,120.361851 C217.119711,112.120576 209.347992,108 199.750558,108 C181.807529,108 166.42057,119.840135 153.589218,143.52076 C140.757866,167.201386 131.056257,196.462689 124.484101,231.305547 C117.911945,266.148406 114.625916,299.634603 114.625916,331.765143 L114.312958,356.801802 C114.104318,360.76596 114,366.086197 114,372.762673 C114,384.446505 114.991025,392.531179 116.973103,397.016936 C118.955182,401.502693 123.075758,403.745538 129.334954,403.745538 C144.982944,403.745538 154.788871,395.400069 158.753029,378.708879 C161.882627,365.981847 165.951043,353.880916 170.9584,342.405723 C175.965757,330.93053 180.973039,321.698354 185.980396,314.708919 C190.987753,307.719483 194.847532,304.224818 197.559851,304.224818 C199.854889,304.224818 201.002391,305.893912 201.002391,309.232149 C201.002391,314.239506 199.646252,323.315205 196.933934,336.459516 C194.012976,351.481587 192.552519,361.913424 192.552519,367.755341 C192.552519,379.439173 195.264796,388.358394 200.689433,394.51327 C206.11407,400.668147 214.146584,403.745538 224.787218,403.745538 C237.72289,403.745538 249.25007,400.198714 259.369103,393.104958 C263.825455,389.980918 268.231196,386.472488 272.586353,382.579645 Z" id="hn" fill="#DD6A58"></path>
        </g>
    </g>
</svg>