<?xml version="1.0" encoding="UTF-8"?>
<svg width="512px" height="512px" viewBox="0 0 512 512" version="1.1" xmlns="http://www.w3.org/2000/svg" xmlns:xlink="http://www.w3.org/1999/xlink">
    <!-- Generator: Sketch 46.2 (44496) - http://www.bohemiancoding.com/sketch -->
    <title>ember-hn-inverted</title>
    <desc>Created with Sketch.</desc>
    <defs></defs>
    <g id="Page-1" stroke="none" stroke-width="1" fill="none" fill-rule="evenodd">
        <g id="ember-hn-inverted">
            <g id="Group">
                <rect id="Rectangle" fill="#FFFFFF" x="0" y="0" width="512" height="512" rx="42"></rect>
                <rect id="Rectangle-Copy" fill="#CE412C" x="26" y="25" width="462" height="462" rx="17"></rect>
                <path d="M180.708791,155.140741 C176.115362,165.894939 171.678593,180.407669 167.398352,198.679365 C163.11811,216.951061 159.620893,236.84081 156.906593,258.349206 C169.851713,243.105391 180.552156,226.504499 189.008242,208.546032 C197.464328,190.587565 201.692308,174.299897 201.692308,159.68254 C201.692308,153.000319 200.961546,147.884321 199.5,144.334392 C198.038454,140.784462 195.950563,139.009524 193.236264,139.009524 C189.478003,139.009524 185.302221,144.386542 180.708791,155.140741 Z M272.702178,382.815895 C273.373451,386.133061 274.184263,389.018059 275.134615,391.470899 C278.370895,399.823675 283.956004,404 291.89011,404 C298.36267,404 303.112622,402.277266 306.14011,398.831746 C309.167598,395.386226 311.829659,388.75631 314.126374,378.941799 C317.258257,366.203816 321.381843,354.092474 326.497253,342.607407 C331.612663,331.122341 336.623602,321.882222 341.53022,314.886772 C346.436838,307.891323 350.247239,304.393651 352.961538,304.393651 C355.258253,304.393651 356.406593,306.064181 356.406593,309.405291 C356.406593,313.999318 355.153859,324.648946 352.648352,341.354497 C349.72526,360.565881 348.263736,374.347754 348.263736,382.700529 C348.263736,389.800388 349.829655,395.125203 352.961538,398.675132 C356.093422,402.225062 361.104361,404 367.994505,404 C375.302234,404 380.57416,402.277266 383.81044,398.831746 C387.046719,395.386226 388.664835,389.695983 388.664835,381.760847 C388.664835,367.769948 389.291203,355.08436 390.543956,343.703704 C391.79671,332.323047 393.467023,320.263908 395.554945,307.525926 C397.85166,292.49093 399,282.258934 399,276.82963 C399,270.147409 397.27749,265.083615 393.832418,261.638095 C390.387345,258.192575 385.324209,256.469841 378.642857,256.469841 C371.752713,256.469841 364.184107,258.871228 355.936813,263.674074 C347.689519,268.47692 339.285757,276.516346 330.725275,287.792593 C322.164792,299.068839 314.439595,313.685977 307.549451,331.644444 C308.38462,322.456391 309.428565,314.73019 310.681319,308.465608 C311.934072,302.201027 313.604385,294.892458 315.692308,286.539683 C318.824191,274.845797 320.39011,267.328412 320.39011,263.987302 C320.39011,261.06383 319.554953,259.080076 317.884615,258.035979 C316.214277,256.991882 313.29123,256.469841 309.115385,256.469841 C301.390071,256.469841 295.387384,257.879351 291.107143,260.698413 C286.826902,263.517474 283.747262,267.95482 281.868132,274.010582 C274.684016,296.730875 270.840366,320.624645 270.337089,345.692516 C264.132571,352.763821 258.946061,358.156583 254.777473,361.870899 C249.035686,366.986974 244.076944,369.544974 239.901099,369.544974 C233.846124,369.544974 230.818681,365.368648 230.818681,357.015873 C230.818681,351.16893 232.802178,339.161996 236.769231,320.994709 C241.36266,299.695132 243.659341,284.973586 243.659341,276.82963 C243.659341,263.25637 236.873694,256.469841 223.302198,256.469841 C216.412053,256.469841 208.843448,258.871228 200.596154,263.674074 C192.34886,268.47692 183.997295,276.464142 175.541209,287.635979 C167.085123,298.807816 159.412122,313.268342 152.521978,331.017989 C152.521978,319.532923 152.835162,308.361254 153.461538,297.502646 C181.230908,267.223834 201.274664,240.756374 213.593407,218.099471 C225.91215,195.442567 232.071429,173.569065 232.071429,152.478307 C232.071429,139.322686 229.096184,128.620853 223.145604,120.372487 C217.195025,112.124121 209.41763,108 199.813187,108 C181.857053,108 166.458855,119.850322 153.618132,143.551323 C140.777408,167.252323 131.068714,196.538803 124.491758,231.41164 C117.914802,266.284478 114.626374,299.799486 114.626374,331.957672 L114.313187,357.015873 C114.104395,360.983441 114,366.308256 114,372.990476 C114,384.684362 114.991748,392.775992 116.975275,397.265608 C118.958801,401.755225 123.082386,404 129.346154,404 C145.005573,404 154.818661,395.64735 158.785714,378.941799 C161.917598,366.203816 165.988986,354.092474 171,342.607407 C176.011014,331.122341 181.021953,321.882222 186.032967,314.886772 C191.043981,307.891323 194.90658,304.393651 197.620879,304.393651 C199.917594,304.393651 201.065934,306.064181 201.065934,309.405291 C201.065934,314.416956 199.708805,323.500463 196.994505,336.656085 C194.071414,351.69108 192.60989,362.131893 192.60989,367.978836 C192.60989,379.672722 195.324149,388.599616 200.752747,394.759788 C206.181346,400.91996 214.219727,404 224.868132,404 C237.813252,404 249.34885,400.450124 259.475275,393.350265 C263.934881,390.223536 268.34384,386.712088 272.702178,382.815895 Z" id="hn" fill="#FFFFFF"></path>
            </g>
        </g>
    </g>
</svg>